<?xml version="1.0" encoding="utf-8"?>
<!-- Generator: Adobe Illustrator 24.2.1, SVG Export Plug-In . SVG Version: 6.00 Build 0)  -->
<svg version="1.1" id="Warstwa_1" xmlns="http://www.w3.org/2000/svg" xmlns:xlink="http://www.w3.org/1999/xlink" x="0px" y="0px"
	 viewBox="0 0 308 123" style="enable-background:new 0 0 308 123;" xml:space="preserve">
<style type="text/css">
	.st0{fill:#3C3C3B;}
	.st1{fill:#F2B705;}
	.st2{fill:#009540;stroke:#FFEC00;stroke-width:0.7033;stroke-miterlimit:10;}
</style>
<g>
	<g>
		<path class="st0" d="M38.11,60.93c-9.47,0-15.83-5.28-16.34-12.14h10.74c0.25,2.48,2.48,4.13,5.47,4.13c2.8,0,4.26-1.27,4.26-2.86
			c0-5.72-19.33-1.59-19.33-14.62c0-6.04,5.15-11,14.43-11c9.15,0,14.24,5.09,14.94,12.08H42.25c-0.32-2.41-2.16-4.01-5.21-4.01
			c-2.54,0-3.94,1.02-3.94,2.73c0,5.66,19.2,1.65,19.39,14.88C52.48,56.29,47.02,60.93,38.11,60.93z"/>
		<path class="st0" d="M60.88,33.97h-4.32v-9.03h4.32V16.3h10.87v8.65h7.12v9.03h-7.12v14.24c0,2.1,0.89,2.99,3.31,2.99h3.88v9.22
			h-5.53c-7.37,0-12.53-3.12-12.53-12.33V33.97z"/>
		<path class="st0" d="M120.01,60.42h-10.87v-4.83c-2.16,3.05-5.98,5.21-10.74,5.21c-8.2,0-13.73-5.66-13.73-15.13V24.94h10.81
			v19.26c0,4.83,2.73,7.5,6.8,7.5c4.2,0,6.87-2.67,6.87-7.5V24.94h10.87V60.42z"/>
		<path class="st0" d="M141.32,24.43c4.7,0,8.77,2.16,10.93,5.4V13.37h10.87v47.05h-10.87v-5.09c-1.97,3.24-5.72,5.59-10.93,5.59
			c-8.71,0-15.64-7.12-15.64-18.31C125.68,31.43,132.61,24.43,141.32,24.43z M144.5,33.91c-4.07,0-7.76,3.05-7.76,8.71
			c0,5.66,3.69,8.84,7.76,8.84c4.13,0,7.76-3.12,7.76-8.77C152.26,37.02,148.63,33.91,144.5,33.91z"/>
		<path class="st0" d="M196.54,24.94h10.89l-29.47,50.96h-10.91l10.1-17.31l-10.36-33.66h10.74l6.52,21.59L196.54,24.94z"/>
	</g>
	<g>
		<path class="st0" d="M75.49,70.13c8.77,0,15.64,6.99,15.64,18.18c0,11.19-6.93,18.31-15.64,18.31c-5.21,0-8.96-2.35-10.94-5.47
			v4.96H53.69V59.07h10.87v16.6C66.53,72.48,70.41,70.13,75.49,70.13z M72.25,79.6c-4.07,0-7.76,3.12-7.76,8.77
			c0,5.66,3.69,8.78,7.76,8.78c4.13,0,7.82-3.18,7.82-8.84C80.07,82.66,76.39,79.6,72.25,79.6z"/>
		<path class="st0" d="M112.63,106.63c-10.43,0-17.93-6.99-17.93-18.25c0-11.25,7.38-18.25,17.93-18.25
			c10.36,0,17.68,6.87,17.68,17.68c0,1.02-0.06,2.1-0.19,3.18h-24.61c0.38,4.64,3.24,6.8,6.74,6.8c3.05,0,4.77-1.53,5.66-3.43h11.57
			C127.76,101.29,121.47,106.63,112.63,106.63z M105.57,84.95h13.61c0-3.88-3.05-6.1-6.68-6.1C108.94,78.84,106.21,81,105.57,84.95z
			"/>
		<path class="st0" d="M151.8,106.63c-10.43,0-17.93-6.99-17.93-18.25c0-11.25,7.38-18.25,17.93-18.25
			c10.36,0,17.68,6.87,17.68,17.68c0,1.02-0.06,2.1-0.19,3.18h-24.61c0.38,4.64,3.24,6.8,6.74,6.8c3.05,0,4.77-1.53,5.66-3.43h11.57
			C166.94,101.29,160.64,106.63,151.8,106.63z M144.75,84.95h13.61c0-3.88-3.05-6.1-6.68-6.1C148.12,78.84,145.38,81,144.75,84.95z"
			/>
	</g>
	<g>
		<g>
			<polygon class="st1" points="194.87,65.57 194.84,65.63 218.44,106.56 218.5,106.56 			"/>
			<polygon class="st1" points="289.34,65.69 265.74,24.76 248.95,24.75 280.93,80.23 			"/>
			<polygon class="st1" points="276.56,87.79 240.22,24.74 223.07,24.73 267.97,102.63 			"/>
			<polygon class="st1" points="261.53,106.59 216.41,28.32 207.83,43.17 244.38,106.58 			"/>
			<polygon class="st1" points="235.65,106.58 203.46,50.72 194.87,65.57 218.5,106.56 			"/>
		</g>
		<g>
			<polygon class="st1" points="203.02,94.4 189.84,95.78 197.64,85.07 			"/>
		</g>
	</g>
	<path class="st2" d="M208.47,21.88"/>
	<path class="st2" d="M181.62,68.4"/>
</g>
</svg>
